<?xml version="1.0" standalone="no"?><!DOCTYPE svg PUBLIC "-//W3C//DTD SVG 1.1//EN" "http://www.w3.org/Graphics/SVG/1.1/DTD/svg11.dtd"><svg t="1647883414447" class="icon" viewBox="0 0 1024 1024" version="1.1" xmlns="http://www.w3.org/2000/svg" p-id="2626" width="32" height="32" xmlns:xlink="http://www.w3.org/1999/xlink"><defs><style type="text/css">@font-face { font-family: feedback-iconfont; src: url("//at.alicdn.com/t/font_1031158_u69w8yhxdu.woff2?t=1630033759944") format("woff2"), url("//at.alicdn.com/t/font_1031158_u69w8yhxdu.woff?t=1630033759944") format("woff"), url("//at.alicdn.com/t/font_1031158_u69w8yhxdu.ttf?t=1630033759944") format("truetype"); }
</style></defs><path d="M475.4944 806.4h-37.5296c-177.3568 0-321.1264-143.7696-321.1264-321.1264V311.4496c0-17.92 14.4896-32.4096 32.4096-32.4096h614.9632c17.92 0 32.4096 14.4896 32.4096 32.4096v173.7728c0 177.408-143.7696 321.1776-321.1264 321.1776z" fill="#94E0DE" p-id="2627"></path><path d="M456.704 728.5248c-141.7728 0-256.7168-114.944-256.7168-256.7168V279.04h513.4336v192.768c0 141.7728-114.944 256.7168-256.7168 256.7168z" fill="#B3F4EF" p-id="2628"></path><path d="M198.5536 292.5056v178.176c0 69.0688 4.2496 202.9056 195.2256 250.1632-42.4448-31.2832-123.904-111.9744-123.904-247.9616V288.9216l-71.3216 3.584z" fill="#E9FFFF" p-id="2629"></path><path d="M830.0032 352.768h-7.7824v-41.3184c0-32-26.0096-58.0096-58.0096-58.0096H149.1968c-32 0-58.0096 26.0096-58.0096 58.0096v173.824c0 191.1808 155.5456 346.7264 346.7264 346.7264h37.5296c157.952 0 291.4816-106.1888 333.1584-250.9312h21.3504c63.9488 0 115.968-51.2 115.968-114.176S893.952 352.768 830.0032 352.768z m-354.5088 428.032h-37.5296c-162.9696 0-295.5264-132.5568-295.5264-295.5264V311.4496c0-3.7376 3.072-6.8096 6.8096-6.8096h614.9632c3.7376 0 6.8096 3.072 6.8096 6.8096v173.824c0 162.9696-132.608 295.5264-295.5264 295.5264z m354.5088-250.9312h-10.752c1.8944-14.6432 2.9696-29.4912 2.9696-44.5952V403.968h7.7824c35.6864 0 64.768 28.2624 64.768 62.976s-29.0816 62.9248-64.768 62.9248zM324.4544 208.0768c-14.1312 0-25.6-11.4688-25.6-25.6V102.1952c0-14.1312 11.4688-25.6 25.6-25.6s25.6 11.4688 25.6 25.6v80.2816c0 14.1312-11.4688 25.6-25.6 25.6zM455.6288 208.0768c-14.1312 0-25.6-11.4688-25.6-25.6V102.1952c0-14.1312 11.4688-25.6 25.6-25.6s25.6 11.4688 25.6 25.6v80.2816c0 14.1312-11.4688 25.6-25.6 25.6zM587.1616 208.0768c-14.1312 0-25.6-11.4688-25.6-25.6V102.1952c0-14.1312 11.4688-25.6 25.6-25.6s25.6 11.4688 25.6 25.6v80.2816c0 14.1312-11.4688 25.6-25.6 25.6zM774.5536 931.3792H160.512c-14.1312 0-25.6-11.4688-25.6-25.6s11.4688-25.6 25.6-25.6h614.0416c14.1312 0 25.6 11.4688 25.6 25.6s-11.4688 25.6-25.6 25.6z" fill="#434A54" p-id="2630"></path></svg>