<?xml version="1.0" standalone="no"?><!DOCTYPE svg PUBLIC "-//W3C//DTD SVG 1.1//EN" "http://www.w3.org/Graphics/SVG/1.1/DTD/svg11.dtd"><svg t="1646495215681" class="icon" viewBox="0 0 1036 1024" version="1.1" xmlns="http://www.w3.org/2000/svg" p-id="27606" width="32.375" height="32" xmlns:xlink="http://www.w3.org/1999/xlink"><defs><style type="text/css"></style></defs><path d="M811.331779 570.379019c9.46449-9.46868 84.283818 13.478205 146.186359 20.810147 141.820711 16.796432-34.464318-174.190189-89.357523-210.740968-54.893204-36.554969-164.357007-19.502966-164.357006-19.502967" fill="#C9D2E3" p-id="27607"></path><path d="M701.226955 344.379232c4.73853-0.737384 116.59045-17.600851 176.222184 22.113137 25.079432 16.69588 65.773806 56.447576 96.769068 94.510831 43.677427 53.648869 60.968242 94.037396 51.386441 120.051127-8.199206 22.293294-31.766163 31.305298-70.051471 26.776253-25.724643-3.054278-53.296935-8.651692-77.626415-13.599706-23.2653-4.73015-52.215998-10.616652-59.2798-9.208919 0.020948-0.00419 2.220531-0.460865 4.554184-2.794517a16.750346 16.750346 0 0 1-23.696838 0.004189 16.767104 16.767104 0 0 1-0.008379-23.701027c11.425261-11.425261 30.794157-8.182448 85.113375 2.861553 23.692648 4.813944 50.540125 10.277288 74.890553 13.159788 21.710928 2.572464 33.048206-0.687108 34.652854-5.056945 10.792619-29.323579-84.929029-141.57771-135.27224-175.09516-40.577063-27.023444-123.83022-21.358995-152.48345-16.896984a16.754535 16.754535 0 0 1-19.138464-13.976777 16.746156 16.746156 0 0 1 13.968398-19.146843z" fill="#6E6E96" p-id="27608"></path><path d="M625.695381 793.110855c-7.373839 100.682231 45.160574 217.109284 9.875078 204.858655-51.79703-17.956974-170.892909-100.962939-204.276289-164.868148-14.483728-27.727311-11.810712-76.36951-5.522-118.069407" fill="#C9D2E3" p-id="27609"></path><path d="M442.350739 717.541574c-7.587513 50.301313-6.230056 88.590811 3.80842 107.808878 30.308154 58.027086 142.918408 138.762244 194.903973 156.786253 0.155018 0.058656 0.226243 0.075414 0.226242 0.075414-3.594747-0.92173-9.451921 2.49705-10.436496 6.079228 1.768045-6.431161-3.297279-32.373667-7.365459-53.213142-7.667117-39.286641-18.166458-93.090528-14.496298-143.190737a16.754535 16.754535 0 0 1 33.421088 2.446774c-3.339176 45.634008 6.259384 94.812487 13.968397 134.321181 8.660071 44.414811 13.436308 68.869981-1.005523 81.405507-3.846127 3.343366-12.259007 8.283-25.293106 3.753955-51.537269-17.87318-177.19-103.18766-213.627658-172.933284-13.696068-26.223215-16.130273-69.393691-7.243959-128.329938a16.750346 16.750346 0 0 1 19.071429-14.06895 16.737777 16.737777 0 0 1 14.06895 19.058861z" fill="#6E6E96" p-id="27610"></path><path d="M638.926394 788.929553s58.802177 16.226636 131.333939-56.292558c60.147064-60.151254 42.768266-139.675594 42.768266-139.675594S619.255841-49.42567 86.454073 33.764641c-34.610957 5.400499-42.33254 35.528497-42.33254 35.528498C27.47174 141.04562-1.18568 350.04787 169.83711 528.021341c75.070709 78.120797 159.488597 128.317368 229.816587 172.912336 119.590262 75.816472 239.272698 87.995876 239.272697 87.995876z" fill="#C9D2E3" p-id="27611"></path><path d="M873.066732 727.123375c23.361663 12.627699 47.347588 30.463173 69.661831 52.781604 67.395213 67.386834 93.974551 150.074383 59.363594 184.681151-34.610957 34.627716-117.298507 8.035809-184.68953-59.359404-22.310053-22.305863-22.310053-22.305863-52.777415-69.67021" fill="#FFFF00" p-id="27612"></path><path d="M960.203723 996.565967c-13.256152 0-27.798535-2.467722-43.291976-7.449253-37.367767-12.011816-76.914169-37.5982-111.357539-72.04157-23.583716-23.575337-24.174461-24.492877-55.023084-72.452158l28.192365-18.132941c29.491166 45.847682 29.491166 45.847682 50.531746 66.884072 30.752261 30.752261 65.526615 53.422626 97.917041 63.833984 28.188176 9.058091 51.176957 7.424115 63.071462-4.47039 11.902884-11.898695 13.528481-34.883286 4.4662-63.071462-10.411358-32.394616-33.081723-67.16478-63.825604-97.912851-20.407937-20.407937-43.157907-37.656855-65.777996-49.886535l15.933358-29.482787c25.439745 13.746344 50.8753 32.99793 73.545665 55.672485 34.44337 34.43918 60.025564 73.981392 72.037379 111.353349 13.231013 41.163619 8.731296 75.623747-12.673785 97.024639-13.352514 13.352514-31.782922 20.127229-53.745232 20.131418z" fill="#6E6E96" p-id="27613"></path><path d="M321.897402 950.78113a16.716828 16.716828 0 0 1-11.852608-4.910306l-92.172988-92.172988a16.758725 16.758725 0 1 1 23.701027-23.696838l92.172988 92.172988a16.758725 16.758725 0 0 1-11.848419 28.607144zM985.961884 253.195008a16.716828 16.716828 0 0 1-11.848419-4.906116l-67.0349-67.034901a16.758725 16.758725 0 0 1 23.696837-23.701027l67.0349 67.034901a16.758725 16.758725 0 0 1-11.848418 28.607143zM144.883368 706.732196a16.716828 16.716828 0 0 1-11.852608-4.910307l-23.043247-23.043247a16.758725 16.758725 0 1 1 23.701027-23.696837l23.043247 23.043247a16.758725 16.758725 0 0 1-11.848419 28.607144z" fill="#BDF2FF" p-id="27614"></path><path d="M617.152621 245.955239c260.757383 348.275635 170.582873 374.993233 104.10101 419.098008 0 0-7.021906 9.761957-6.812422-31.430989 26.977358-31.464506 48.474612-81.263058 35.947466-158.160468l-14.043812-27.589052s-3.209296 58.961385-33.190655 119.259278c-4.696633-13.67512-14.223968-26.612855-19.662174-42.931664C573.596694 194.640023 359.424377 57.629066 71.559756 57.629066c0 0 335.044622-92.889424 545.592865 188.326173z" fill="#FFFFFF" opacity=".56" p-id="27615"></path><path d="M753.434573 230.151761a16.716828 16.716828 0 0 1-11.848419-4.906116l-41.896812-41.896813a16.758725 16.758725 0 0 1 23.696837-23.701027l41.896813 41.896813a16.758725 16.758725 0 0 1-11.848419 28.607143z" fill="#BDF2FF" p-id="27616"></path><path d="M637.233763 805.600295a17.127417 17.127417 0 0 1-5.802709-1.680063c10.009149 4.99829 76.444925 14.793765 150.673508-59.434818 65.878548-65.878548 48.084972-151.490495 47.288933-155.106191a13.603895 13.603895 0 0 0-0.326796-1.261094c-2.006857-6.678352-50.653247-165.257788-166.221414-316.144969C508.359167 70.286093 308.155247-17.810335 83.86904 17.207021 38.871863 24.228927 28.313866 63.465292 27.794346 65.505667 8.752244 147.581523-16.708449 358.079489 157.754069 539.635138c69.858746 72.699349 146.446119 120.947719 214.021488 163.51907l18.903842 11.932212c121.534274 77.048239 241.505798 89.998543 246.554364 90.513875z m3.406211-33.345674c-1.160542-0.117311-117.440956-12.841373-232.01198-85.473687L389.640358 674.794256c-65.949773-41.54488-140.697877-88.632707-207.724397-158.382522C18.824238 346.683556 42.634197 149.835571 60.356548 73.457682c0.050276-0.192725 5.25386-19.477828 28.686748-23.131231 512.020948-79.947498 706.045088 541.197889 707.943014 547.482411a16.390033 16.390033 0 0 1-0.339364-1.31556c0.611693 2.89507 14.408314 71.660308-38.230842 124.303654-63.762759 63.75438-113.163291 52.44224-115.232994 51.935289 0.138259 0.033517 0.067035 0.016759 0.209484 0.058656a16.385843 16.385843 0 0 0-2.75262-0.53628z" fill="#6E6E96" p-id="27617"></path><path d="M514.274997 773.98077a16.767104 16.767104 0 0 1-3.330797-33.182276c70.868459-14.450211 121.928104-38.536688 165.551066-78.104038 111.818404-101.398666 61.642781-206.077853 61.12326-207.125273a16.762915 16.762915 0 0 1 30.014877-14.923645c0.66197 1.332319 16.230825 33.203224 15.254629 79.654221-0.896592 42.399574-16.17217 105.827159-83.877419 167.218559-48.332163 43.836635-104.268598 70.395025-181.367112 86.114708-1.131214 0.238812-2.258238 0.347744-3.368504 0.347744z" fill="#6E6E96" p-id="27618"></path><path d="M787.538579 546.598388c0.12988 0.427347 0.247191 0.837936 0.381261 1.269473-0.234622-0.829557-0.381261-1.269473-0.381261-1.269473z m-122.900111 244.015417s195.234958-11.722728 123.281372-242.745944c3.376883 11.890315 25.159036 104.792308-110.712328 129.381548-7.013526 1.269473-14.730919 1.487337-23.00135 0.842126 31.916992-13.876224 118.635015-64.826938 96.182513-202.621366l-14.043812-27.584862s-8.429639 155.948316-127.043705 219.937319c-63.632879-22.096379-146.203118-76.935117-227.830678-146.429361 88.607569-14.471159 156.241594-91.335052 156.241594-184.035939 0-103.011693-83.504537-186.52461-186.520421-186.52461-89.944078 0-165.006407 63.666397-182.607258 148.385941-74.207635-97.225744-119.992472-190.957293-103.074539-250.165869 0.00419-0.012569-251.376687 506.938865 599.128612 741.561017z" fill="#6E6E96" opacity=".18" p-id="27619"></path><path d="M509.36469 436.1542a185.523276 185.523276 0 0 0 28.355763-98.809443c0-103.011693-83.508727-186.520421-186.52461-186.520421-15.761581 0-31.045538 1.994288-45.663336 5.672829 20.751491-6.83337 63.909398-28.933939-42.751508-75.20059 0 0 251.108547 18.40946 379.388208 338.262297-0.00419 0.00419-49.056978-104.674997-132.804517 16.595328z" fill="#FFFFFF" opacity=".56" p-id="27620"></path><path d="M610.780115 857.166892s-113.728898-87.501493-113.728898-37.225318 133.768144 158.177227 133.768144 158.177226-234.802308-69.611554-191.615073-235.401432l169.267313 58.395778 2.308514 56.053746zM858.872092 394.391457s107.431807 123.893065 69.724676 136.462109-77.509104-16.758725-77.509104-16.758725l-119.238329-139.332041 77.341516 193.797897s165.49241 4.189681 186.440817 25.138088 23.939839-101.147285-136.759576-199.307328z" fill="#6E6E96" opacity=".2" p-id="27621"></path><path d="M853.823526 746.680807c16.209877 8.756434 32.847101 21.132752 48.327974 36.613624 46.748464 46.744274 65.187251 104.10939 41.176187 128.112074-24.002684 24.011063-81.3678 5.576466-128.120453-41.176187-15.472493-15.476683-15.472493-15.476683-36.609435-48.327974" fill="#FFB700" opacity=".25" p-id="27622"></path><path d="M838.061945 764.047036c9.07485 4.901927 18.388511 11.819091 27.044393 20.487541 26.16037 26.16037 36.483745 58.265897 23.043247 71.693826-13.432118 13.444687-45.529266 3.125502-71.689637-23.043247-8.664261-8.655882-8.664261-8.655882-20.491731-27.044393" fill="#FF6A00" opacity=".25" p-id="27623"></path><path d="M351.811726 335.33371m-135.464964 0a135.464965 135.464965 0 1 0 270.929929 0 135.464965 135.464965 0 1 0-270.929929 0Z" fill="#82BEFF" p-id="27624"></path><path d="M351.811726 216.62747c65.455391 0 118.70624 53.250849 118.70624 118.70624s-53.250849 118.70624-118.70624 118.706239c-65.455391 0-118.710429-53.250849-118.710429-118.706239s53.255039-118.70624 118.710429-118.70624zM199.583847 335.33371c0 83.936075 68.291805 152.22369 152.227879 152.223689 83.936075 0 152.22369-68.287615 152.22369-152.223689s-68.287615-152.22369-152.22369-152.22369-152.227879 68.287615-152.227879 152.22369z" fill="#6E6E96" p-id="27625"></path><path d="M259.47953 250.94515c38.214083-38.218273 95.332008-45.960804 141.250915-23.307197-37.321681-14.538194-81.330093-6.762146-111.466471 23.374231-40.660857 40.665046-40.656667 106.585492 0.00419 147.250538s106.577112 40.665046 147.246348 0c24.333669-24.333669 34.091437-57.71286 29.298442-89.311435 9.686543 40.22094-1.160542 84.375991-32.558014 115.769273-47.98442 47.98442-125.782611 47.98442-173.77122 0-47.98442-47.988609-47.988609-125.790991-0.00419-173.77541z" fill="#6E6E96" opacity=".2" p-id="27626"></path><path d="M369.856683 314.879686c18.882893 25.087811 40.08687 43.057354 57.696101 29.805392 17.605041-13.264531 16.55762-44.343587-2.325273-69.431398-18.891273-25.087811-48.474612-34.677992-66.079653-21.42184-17.60923 13.260341-8.182448 35.960034 10.708825 61.047846z" fill="#FFFFFF" opacity=".42" p-id="27627"></path><path d="M310.263618 337.892289a19.05886 17.001727 70.846 1 0 12.506742 36.007527 19.05886 17.001727 70.846 1 0-12.506742-36.007527Z" fill="#FFFFFF" opacity=".25" p-id="27628"></path></svg>