<?xml version="1.0" standalone="no"?><!DOCTYPE svg PUBLIC "-//W3C//DTD SVG 1.1//EN" "http://www.w3.org/Graphics/SVG/1.1/DTD/svg11.dtd"><svg t="1647624150652" class="icon" viewBox="0 0 1024 1024" version="1.1" xmlns="http://www.w3.org/2000/svg" p-id="2709" xmlns:xlink="http://www.w3.org/1999/xlink" width="200" height="200"><defs><style type="text/css"></style></defs><path d="M747.1616 904.8576l-231.3216-137.5744-238.08 139.1104c-52.3776 30.6176-118.2208-7.168-118.2208-67.84V276.9408c0-86.0672 69.7856-155.8528 155.8528-155.8528h394.5984c86.0672 0 155.8528 69.7856 155.8528 155.8528v560.384c0.0512 60.928-66.304 98.6624-118.6816 67.5328z" fill="#FFAB66" p-id="2710"></path><path d="M659.3536 128.2048s77.0048 39.9872 77.0048 148.0704v353.8944l129.5872-72.3456V285.1328c0-56.2688-33.3824-158.4128-206.592-156.928z" fill="#FF954D" p-id="2711"></path><path d="M258.3552 143.36s-84.3776 31.0784-84.3776 146.5856v577.6384c0 27.2896 26.0096 47.0528 52.2752 39.68l60.9792-17.0496V248.832c0-57.7536 22.4768-88.832 61.0816-104.3968C271.2576 138.9568 258.3552 143.36 258.3552 143.36z" fill="#FFC89F" p-id="2712"></path><path d="M865.8944 837.3248v-279.4496l-350.0544 209.408 231.3216 137.5744c52.3776 31.1296 118.7328-6.6048 118.7328-67.5328z" fill="#FF8A33" p-id="2713"></path><path d="M891.4944 557.8752c0-0.0512 0-0.0512 0 0V276.992c0-100.0448-81.408-181.4528-181.4528-181.4528H315.4432c-100.0448 0-181.4528 81.408-181.4528 181.4528v561.6128c0 37.7856 19.5584 71.5264 52.3264 90.368 16.2816 9.3184 34.048 13.9776 51.8656 13.9776 18.0736 0 36.096-4.8128 52.5312-14.3872l225.024-131.4816 218.368 129.8432c2.048 1.2288 4.1472 2.3552 6.2464 3.4304 0.6144 0.3072 1.2288 0.5632 1.792 0.8704 1.536 0.7168 3.0208 1.4848 4.5568 2.1504 0.8192 0.3584 1.6384 0.6144 2.4576 0.9728 1.3312 0.512 2.6624 1.0752 4.0448 1.5872 0.9216 0.3072 1.8432 0.5632 2.7648 0.8704 1.28 0.4096 2.56 0.8192 3.84 1.1776 0.9728 0.256 1.9456 0.4608 2.9184 0.7168 1.28 0.3072 2.5088 0.6656 3.7888 0.9216 0.9728 0.2048 1.9968 0.3584 2.9696 0.512 1.2288 0.2048 2.5088 0.4608 3.7376 0.6656 1.024 0.1536 2.048 0.2048 3.072 0.3584 1.2288 0.1536 2.4576 0.3072 3.7376 0.3584l3.1232 0.1536c1.2288 0.0512 2.4576 0.1024 3.6864 0.1024h0.4608c1.024 0 1.9968-0.0512 3.0208-0.1024 1.0752-0.0512 2.0992-0.0512 3.1744-0.1024 1.1776-0.0512 2.3552-0.2048 3.5328-0.3072 1.024-0.1024 2.0992-0.1536 3.1232-0.3072 1.1776-0.1536 2.3552-0.3584 3.5328-0.5632 1.024-0.1536 2.048-0.3072 3.1232-0.512 1.1776-0.2048 2.3552-0.512 3.5328-0.8192 1.024-0.256 2.048-0.4608 3.072-0.7168 1.1776-0.3072 2.3552-0.7168 3.5328-1.0752 0.9728-0.3072 1.9968-0.5632 2.9696-0.8704 1.2288-0.4096 2.4064-0.8704 3.6352-1.3312 0.9216-0.3584 1.8944-0.6656 2.816-1.024 1.28-0.512 2.56-1.1264 3.84-1.6896 0.8192-0.3584 1.6896-0.7168 2.5088-1.1264 1.5872-0.768 3.1232-1.6384 4.6592-2.4576 0.512-0.256 1.024-0.512 1.4848-0.768 14.2336-8.0896 25.9072-18.9952 34.7136-31.7952 11.5712-16.896 17.9712-37.1712 17.9712-58.7776v-279.552z m-131.2256 324.9664l-194.4576-115.6096 274.4832-164.1984v234.3424c0 19.3024-10.0352 36.5056-26.7776 46.0288-5.6832 3.2256-11.776 5.2736-17.92 6.2464-11.9808 1.8944-24.3712-0.3072-35.328-6.8096z m-495.4112 1.4336c-16.5888 9.6768-36.4544 9.7792-53.0944 0.2048s-26.624-26.7264-26.624-45.9264V276.9408c0-71.8336 58.4192-130.2528 130.2528-130.2528h394.5984c71.8336 0 130.2528 58.4192 130.2528 130.2528v266.3936l-337.5616 201.9328-237.824 139.008z" fill="#434A54" p-id="2714"></path><path d="M532.992 283.136l28.7744 58.3168a23.7824 23.7824 0 0 0 17.8688 13.0048l64.3072 9.3696c19.5072 2.816 27.2896 26.7776 13.1584 40.5504l-46.5408 45.3632a23.79264 23.79264 0 0 0-6.8096 21.0432l11.008 64.0512c3.328 19.4048-17.0496 34.2016-34.4576 25.0368l-57.5488-30.2592a23.79264 23.79264 0 0 0-22.1184 0l-57.5488 30.2592c-17.408 9.1648-37.7856-5.632-34.4576-25.0368l11.008-64.0512c1.3312-7.7312-1.2288-15.5648-6.8096-21.0432l-46.5408-45.3632c-14.08-13.7728-6.2976-37.6832 13.1584-40.5504l64.3072-9.3696a23.69536 23.69536 0 0 0 17.8688-13.0048l28.7744-58.3168c8.704-17.664 33.8944-17.664 42.5984 0z" fill="#C0DAF9" p-id="2715"></path><path d="M568.2688 353.28s-105.1136 47.36-85.1456 179.9168c-48.8448 31.8464-71.0656 22.9376-71.0656 22.9376l14.08-96.9728-65.8944-68.096 19.968-22.9376 76.2368-17.0496 52.5824-90.3168L568.2688 353.28z" fill="#E9F5FF" p-id="2716"></path><path d="M431.9744 588.2368c-10.1888 0-20.3264-3.1744-28.9792-9.472a49.13664 49.13664 0 0 1-19.6608-48.2816L394.24 467.3536l-45.8752-44.6976a49.03936 49.03936 0 0 1-12.4928-50.5856 48.95232 48.95232 0 0 1 39.8336-33.5872l63.3856-9.216 28.3648-57.4464a49.12128 49.12128 0 0 1 44.288-27.4944c18.944 0 35.8912 10.5472 44.288 27.4944l28.3648 57.4464 63.3856 9.216c18.7392 2.7136 33.9968 15.616 39.8336 33.5872 5.8368 18.0224 1.0752 37.376-12.4928 50.5856l-45.8752 44.6976 10.752 63.0784c3.2256 18.6368-4.3008 37.1712-19.6608 48.2816a49.05984 49.05984 0 0 1-51.968 3.7376l-56.6784-29.7984-56.6784 29.7984a48.67072 48.67072 0 0 1-23.04 5.7856z m-45.2096-199.68l43.8784 42.8032a49.31072 49.31072 0 0 1 14.1824 43.6736l-10.3424 60.416 54.272-28.5184a49.23392 49.23392 0 0 1 45.9264 0l54.272 28.5184-10.3936-60.416c-2.7648-16.0256 2.56-32.3584 14.1824-43.6736l43.8784-42.8032-60.672-8.8064a49.5104 49.5104 0 0 1-37.1712-26.9824l-27.136-54.9376-27.136 54.9376a49.26464 49.26464 0 0 1-37.1712 26.9824l-60.5696 8.8064z m197.9904-58.4704zM532.992 283.136l-22.9376 11.3152 22.9376-11.3152z" fill="#434A54" p-id="2717"></path></svg>