<?xml version="1.0" standalone="no"?><!DOCTYPE svg PUBLIC "-//W3C//DTD SVG 1.1//EN" "http://www.w3.org/Graphics/SVG/1.1/DTD/svg11.dtd"><svg t="1647624745635" class="icon" viewBox="0 0 1024 1024" version="1.1" xmlns="http://www.w3.org/2000/svg" p-id="2853" width="32" height="32" xmlns:xlink="http://www.w3.org/1999/xlink"><defs><style type="text/css"></style></defs><path d="M510.5152 133.8368c-204.288 3.1232-371.5072 169.216-376.1152 373.4528a380.83584 380.83584 0 0 0 28.416 153.4976c2.7648 6.7072 4.3008 13.7728 4.3008 20.992v140.1856c0 29.5936 24.0128 53.6064 53.6064 53.6064H377.856c5.9392 0 11.8272 1.0752 17.4592 2.9696 37.888 12.6464 78.336 19.6096 120.4736 19.6608 207.7184 0.4096 379.4432-167.936 382.9248-375.6032 3.584-216.1152-172.1856-392.0896-388.1984-388.7616z" fill="#E8BC70" p-id="2854"></path><path d="M484.352 484.4544m-319.6416 0a319.6416 319.6416 0 1 0 639.2832 0 319.6416 319.6416 0 1 0-639.2832 0Z" fill="#FFE8B2" p-id="2855"></path><path d="M442.1632 433.2032m-200.5504 0a200.5504 200.5504 0 1 0 401.1008 0 200.5504 200.5504 0 1 0-401.1008 0Z" fill="#FFF2D7" p-id="2856"></path><path d="M516.5056 923.8016h-0.8192c-43.8784-0.1024-87.1424-7.168-128.512-20.992-3.2256-1.0752-6.4-1.6384-9.3696-1.6384H220.672c-43.6736 0-79.2064-35.5328-79.2064-79.2064v-140.1856c0-3.6352-0.8192-7.424-2.4064-11.3152a405.74976 405.74976 0 0 1-30.2592-163.7376c2.3552-105.4208 45.2096-204.8 120.7296-279.7568 75.4688-74.9568 175.1552-117.1456 280.576-118.7328 111.5136-1.6896 216.2688 40.7552 294.9632 119.6032 78.7456 78.848 121.0368 183.6544 119.1936 295.168-3.7376 221.184-186.5728 400.7936-407.7568 400.7936zM510.5152 133.8368l0.4096 25.6c-189.2352 2.9184-346.6752 159.232-350.9248 348.416-1.1264 49.4592 7.7824 97.6384 26.4704 143.2064 4.1472 10.0352 6.1952 20.3776 6.1952 30.72v140.1856c0 15.4112 12.544 28.0064 28.0064 28.0064h157.1328c8.4992 0 17.1008 1.4336 25.6 4.2496a355.70176 355.70176 0 0 0 112.384 18.3296h0.7168c193.4336 0 353.3312-157.0816 356.5568-350.464 1.6384-97.536-35.3792-189.184-104.192-258.1504-68.864-68.9664-160.6656-106.1376-257.9456-104.6016l-0.4096-25.4976z" fill="#434A54" p-id="2857"></path><path d="M682.5472 395.7248c-43.6736-43.6736-114.3808-45.568-160.4096-5.2736-2.4064 2.1504-5.4784 3.3792-8.704 3.3792-3.1232 0-6.0928-1.1776-8.4992-3.2256C457.216 350.4128 385.792 352.9216 343.04 397.312c-44.032 45.7728-43.3664 119.552 1.5872 164.4544l116.2752 116.224c14.5408 14.5408 33.5872 21.8112 52.6848 21.8112 19.0976 0 38.1952-7.2704 52.6848-21.8112l116.224-116.224c45.8752-45.7216 45.8752-120.2176 0.0512-166.0416z" fill="#FC6565" p-id="2858"></path><path d="M475.8016 364.1344S331.776 351.744 314.4704 458.6496c-6.1952 38.4 42.496 130.816 115.5584 172.4928-14.0288-93.2352 9.472-221.184 86.2208-245.9136-29.2864-21.0944-40.448-21.0944-40.448-21.0944z" fill="#FFB8B8" p-id="2859"></path><path d="M482.816 387.0208S316.928 439.6544 414.72 611.072c48.896 79.2064 98.9184 88.7808 98.9184 88.7808s-81.5616-248.4736 58.9312-308.5312c-56.9344-11.7248-89.7536-4.3008-89.7536-4.3008z" fill="#FF9797" p-id="2860"></path><path d="M513.6384 725.4528c-26.7776 0-51.9168-10.3936-70.8096-29.2864l-116.2752-116.224c-54.7328-54.7328-55.6032-144.5888-1.9456-200.3456 49.6128-51.5584 130.6624-57.2928 188.7232-14.8992 56.32-42.5472 136.704-37.6832 187.3408 12.9536 55.7568 55.7568 55.7568 146.5344 0 202.2912l-116.224 116.224c-18.8928 18.8928-44.032 29.2864-70.8096 29.2864zM426.9568 387.6352c-24.1152 0-47.872 9.216-65.4336 27.4944-34.4576 35.7888-33.8944 93.4912 1.2288 128.6144l116.2752 116.224a48.5888 48.5888 0 0 0 34.6112 14.2848c13.1072 0 25.3952-5.0688 34.6112-14.2848l116.224-116.224c35.7888-35.7888 35.7888-94.0544 0-129.8944-34.048-34.048-89.1392-35.8912-125.44-4.096a38.73792 38.73792 0 0 1-25.6 9.728c-9.0624 0-17.9712-3.2768-24.9856-9.216-17.92-15.1552-39.8336-22.6304-61.4912-22.6304z" fill="#434A54" p-id="2861"></path></svg>